# xmcd CD database file
#
# Track frame offsets:
#	150
#	15064
#	30060
#	48992
#	64749
#	82186
#	102306
#	117714
#	133300
#	159238
#	174557
#	191830
#
# Disc length: 2782 seconds
#
# Revision: 0
# Processed by: cddbd v1.5.2PL0 Copyright (c) Steve Scherf et al.
# Submitted via: CDex 1.51
#
DISCID=980adc0c
DTITLE=Nina Van Horn - Seven Deadly Sins
DYEAR=2013
DGENRE=Blues
TTITLE0=A Handshake, A Pencil And A Smile
TTITLE1=For The Ones
TTITLE2=Streets Of Bangalore
TTITLE3=The Seeker
TTITLE4=Dangerous State Of Mind
TTITLE5=Snake Eyes
TTITLE6=Bum Man
TTITLE7=Money Honey
TTITLE8=Secret Swimming Pool
TTITLE9=Twenty Beers Ago
TTITLE10=Enough Is Enough
TTITLE11=Let´s Kill The War
EXTD=YEAR: 2013
EXTT0=
EXTT1=
EXTT2=
EXTT3=
EXTT4=
EXTT5=
EXTT6=
EXTT7=
EXTT8=
EXTT9=
EXTT10=
EXTT11=
PLAYORDER=
